HIERARCHY
ROOT SpineBase
{
  OFFSET 0.000000 0.000000 0.000000
  CHANNELS 6 Xposition Yposition Zposition Zrotation Xrotation Yrotation
  JOINT SpineMid
  {
    OFFSET -0.000000 35.481629 0.000000
    CHANNELS 3 Zrotation Xrotation Yrotation
    JOINT SpineShoulder
    {
      OFFSET 0.064344 26.265898 -0.631201
      CHANNELS 3 Zrotation Xrotation Yrotation
      JOINT Neck
      {
        OFFSET 0.048257 8.659472 -0.538720
        CHANNELS 3 Zrotation Xrotation Yrotation
        JOINT Head
        {
          OFFSET 2.003929 9.644390 5.720111
          CHANNELS 3 Zrotation Xrotation Yrotation
          End Site
          {
            OFFSET 0 0 0
          }
        }
      }
      JOINT ShoulderLeft
      {
        OFFSET -1.240209 -4.933961 -8.857503
        CHANNELS 3 Zrotation Xrotation Yrotation
        JOINT ElbowLeft
        {
          OFFSET 5.306545 -20.565871 1.074714
          CHANNELS 3 Zrotation Xrotation Yrotation
          JOINT WristLeft
          {
            OFFSET -1.039473 -16.205014 8.520713
            CHANNELS 3 Zrotation Xrotation Yrotation
            JOINT HandLeft
            {
              OFFSET -1.836415 -8.191132 1.246859
              CHANNELS 3 Zrotation Xrotation Yrotation
              JOINT HandTipLeft
              {
                OFFSET 1.881978 -3.593116 1.262219
                CHANNELS 3 Zrotation Xrotation Yrotation
                End Site
                {
                  OFFSET 0 0 0
                }
              }
              JOINT ThumbLeft
              {
                OFFSET -0.677122 -1.534785 -4.705159
                CHANNELS 3 Zrotation Xrotation Yrotation
                End Site
                {
                  OFFSET 0 0 0
                }
              }
            }
          }
        }
      }
      JOINT ShoulderRight
      {
        OFFSET 11.665633 -6.842995 -13.161031
        CHANNELS 3 Zrotation Xrotation Yrotation
        JOINT ElbowRight
        {
          OFFSET 6.618465 -25.017256 0.380716
          CHANNELS 3 Zrotation Xrotation Yrotation
          JOINT WristRight
          {
            OFFSET 0.080574 -22.291319 11.515871
            CHANNELS 3 Zrotation Xrotation Yrotation
            JOINT HandRight
            {
              OFFSET -0.195585 -1.435868 1.817239
              CHANNELS 3 Zrotation Xrotation Yrotation
              JOINT HandTipRight
              {
                OFFSET 0.314261 0.325261 4.892181
                CHANNELS 3 Zrotation Xrotation Yrotation
                End Site
                {
                  OFFSET 0 0 0
                }
              }
              JOINT ThumbRight
              {
                OFFSET -0.339401 5.027543 0.617223
                CHANNELS 3 Zrotation Xrotation Yrotation
                End Site
                {
                  OFFSET 0 0 0
                }
              }
            }
          }
        }
      }
    }
  }
  JOINT HipLeft
  {
    OFFSET -6.740043 0.712311 -0.636004
    CHANNELS 3 Zrotation Xrotation Yrotation
    JOINT KneeLeft
    {
      OFFSET 1.061257 -33.910118 2.475467
      CHANNELS 3 Zrotation Xrotation Yrotation
      JOINT AnkleLeft
      {
        OFFSET -1.532350 -32.422850 3.752007
        CHANNELS 3 Zrotation Xrotation Yrotation
        JOINT FootLeft
        {
          OFFSET 7.400142 -5.376433 -4.993635
          CHANNELS 3 Zrotation Xrotation Yrotation
          End Site
          {
            OFFSET 0 0 0
          }
        }
      }
    }
  }
  JOINT HipRight
  {
    OFFSET 7.589961 1.110394 -6.830633
    CHANNELS 3 Zrotation Xrotation Yrotation
    JOINT KneeRight
    {
      OFFSET -2.589559 -33.860852 3.144625
      CHANNELS 3 Zrotation Xrotation Yrotation
      JOINT AnkleRight
      {
        OFFSET 2.448653 -32.111546 -0.794046
        CHANNELS 3 Zrotation Xrotation Yrotation
        JOINT FootRight
        {
          OFFSET -5.642657 -5.476737 3.447686
          CHANNELS 3 Zrotation Xrotation Yrotation
          End Site
          {
            OFFSET 0 0 0
          }
        }
      }
    }
  }
}
MOTION
Frames: 13
Frame Time: 0.033333
-36.324412 74.441770 318.793576 -1.162928 0.020606 15.442941 -0.506296 -0.363452 -15.485540 -0.205166 -0.210460 -0.071847 -0.312197 2.690992 0.950772 0.000000 0.000000 0.000000 -65.587162 -10.556065 -15.975670 35.227227 -8.711171 -13.100235 13.551188 -23.600867 15.295051 -36.767862 29.254135 -13.920440 0.000000 0.000000 0.000000 0.000000 0.000000 0.000000 6.861257 3.191319 0.656873 4.044418 8.362107 3.620867 -0.412467 23.432935 -2.296313 6.795472 55.747369 -22.059312 0.000000 0.000000 0.000000 0.000000 0.000000 0.000000 -0.870442 -0.495349 -15.611912 -0.234133 1.195008 -0.085551 -4.693239 0.283258 8.288720 0.000000 0.000000 0.000000 5.508091 1.794129 -15.400621 -9.276753 -8.002742 -0.979357 10.420344 10.349710 -3.520705 0.000000 0.000000 0.000000
-35.924779 74.564373 318.797302 -1.384925 0.147071 15.452471 -0.463177 -0.343132 -15.499084 -0.152077 -0.213066 -0.076832 -0.927108 2.429767 1.431141 0.000000 0.000000 0.000000 -69.246199 -9.975668 -16.536323 28.601905 -9.801641 -17.999278 12.369162 -23.226198 16.536619 -51.672033 26.009865 -15.053563 0.000000 0.000000 0.000000 0.000000 0.000000 0.000000 6.978035 4.834772 1.073266 5.156581 9.789187 3.679576 -1.187297 24.080469 -4.529697 0.876021 50.517797 -14.679099 0.000000 0.000000 0.000000 0.000000 0.000000 0.000000 -0.897836 -0.616538 -15.640304 -0.398310 1.278239 -0.111043 -5.433603 -0.012496 9.282674 0.000000 0.000000 0.000000 5.741145 1.851816 -15.421881 -9.802556 -8.410466 -1.054553 12.639378 16.867816 -10.754408 0.000000 0.000000 0.000000
-35.455263 74.599523 318.830945 -1.692831 0.295391 15.799455 -0.459561 -0.320711 -15.852571 -0.135663 -0.213292 -0.088886 -1.130724 1.799021 1.828724 0.000000 0.000000 0.000000 -69.984703 -8.892542 -15.639263 15.586142 -8.359817 -24.217500 8.818996 -21.243277 18.553851 -47.641459 27.584475 -15.801892 0.000000 0.000000 0.000000 0.000000 0.000000 0.000000 7.404504 6.731550 1.552357 5.189256 10.873225 3.229983 -0.732695 24.551586 -4.965480 0.689537 48.918473 -14.825772 0.000000 0.000000 0.000000 0.000000 0.000000 0.000000 -0.777416 -0.629297 -15.995004 -0.738056 1.115190 -0.160854 -5.828389 -1.078322 8.790366 0.000000 0.000000 0.000000 5.829110 1.874715 -15.792623 -9.955459 -8.832086 -1.097503 16.273184 22.791939 -17.804113 0.000000 0.000000 0.000000
-34.791088 74.575110 318.868338 -1.867022 0.451284 16.360704 -0.399390 -0.322495 -16.414470 -0.114237 -0.213487 -0.092716 -1.809824 1.329519 2.343251 0.000000 0.000000 0.000000 -73.604308 -9.428976 -17.558132 11.093156 -4.345770 -26.024802 3.451027 -24.832986 18.849726 -40.584924 30.097528 -16.643932 0.000000 0.000000 0.000000 0.000000 0.000000 0.000000 6.999161 8.591515 2.050696 5.318811 11.780329 2.560180 0.248228 24.962346 -4.344697 2.508588 45.147614 -18.139689 0.000000 0.000000 0.000000 0.000000 0.000000 0.000000 -0.903128 -0.521381 -16.571054 -1.153274 0.869549 -0.229111 -5.705109 -2.194278 7.806703 0.000000 0.000000 0.000000 5.505775 1.950356 -16.402706 -9.841407 -9.254094 -1.111552 20.774861 27.305289 -23.884931 0.000000 0.000000 0.000000
-33.963213 74.495286 318.865132 -1.978910 0.585705 17.171636 -0.300092 -0.327834 -17.222865 -0.060015 -0.223026 -0.090312 -2.587608 0.811215 2.834205 0.000000 0.000000 0.000000 -77.262612 -10.433822 -20.271963 9.095355 -1.780858 -26.446898 -3.572971 -24.499056 19.924681 -28.808968 29.170804 -28.084665 0.000000 0.000000 0.000000 0.000000 0.000000 0.000000 5.842678 10.626785 2.642761 5.606714 11.702618 1.752964 1.382157 26.014678 -3.598684 3.977632 40.025445 -21.078724 0.000000 0.000000 0.000000 0.000000 0.000000 0.000000 -1.470774 -0.325142 -17.430534 -1.046396 0.724641 -0.253492 -3.226668 -3.737512 3.335336 0.000000 0.000000 0.000000 4.737535 1.969307 -17.279519 -9.262582 -9.446629 -1.053370 24.030400 29.588862 -27.355101 0.000000 0.000000 0.000000
-33.141886 74.373902 318.831891 -2.106300 0.709469 18.725458 -0.318864 -0.318281 -18.778136 -0.106209 -0.206455 -0.099105 -2.578510 0.829908 2.912082 0.000000 0.000000 0.000000 -80.836508 -12.541928 -24.881478 8.829040 1.786979 -24.405521 -8.848527 -23.358415 21.367454 -22.431174 27.174255 -38.504670 0.000000 0.000000 0.000000 0.000000 0.000000 0.000000 4.883161 12.890668 3.347731 5.614306 10.782477 0.789046 2.323263 27.014522 -3.170034 3.002401 35.779842 -20.269721 0.000000 0.000000 0.000000 0.000000 0.000000 0.000000 -1.440148 0.020091 -18.974617 -1.894365 0.073720 -0.392100 0.912278 -5.369246 -2.608708 0.000000 0.000000 0.000000 3.734521 1.766328 -18.892969 -8.262749 -9.268323 -0.919814 26.594402 30.850493 -29.485876 0.000000 0.000000 0.000000
-32.382952 74.133618 318.864231 -2.251298 0.689788 21.476882 -0.416901 -0.212573 -21.535250 -0.175740 -0.124384 -0.112611 -2.476335 0.778776 3.044731 0.000000 0.000000 0.000000 -83.926947 -15.257638 -30.680875 8.735609 5.469782 -21.051564 -15.720847 -19.596319 24.644970 -13.558001 22.595163 -50.028784 0.000000 0.000000 0.000000 0.000000 0.000000 0.000000 3.140834 15.073000 4.199279 6.698759 9.502552 0.128199 2.593138 27.424406 -4.034990 0.815341 32.222718 -16.855668 0.000000 0.000000 0.000000 0.000000 0.000000 0.000000 -0.544518 0.819398 -21.637557 -3.868827 -1.290440 -0.734945 5.849075 -7.846095 -9.965754 0.000000 0.000000 0.000000 3.041199 1.549423 -21.688220 -7.683162 -9.133569 -0.846946 24.684079 28.813963 -25.562699 0.000000 0.000000 0.000000
-31.732940 73.640984 318.651387 -2.273355 0.881078 22.885265 -0.660051 -0.258740 -22.950785 -0.212357 -0.032134 -0.122000 -3.499441 1.158701 3.709046 0.000000 0.000000 0.000000 -86.500186 -18.839225 -37.949062 6.342040 9.620423 -16.197850 -13.259296 -17.579995 26.530619 -13.551222 21.190413 -53.603719 0.000000 0.000000 0.000000 0.000000 0.000000 0.000000 0.622335 16.823858 5.118815 8.067375 8.402676 -0.574462 3.134490 26.916081 -3.323399 -0.082396 31.823603 -15.428033 0.000000 0.000000 0.000000 0.000000 0.000000 0.000000 0.027289 0.480158 -22.996344 -6.047559 -1.908018 -1.028045 7.677557 -3.949480 -4.994183 0.000000 0.000000 0.000000 1.946370 0.852434 -23.101398 -7.128189 -8.498844 -0.751123 22.333322 24.797815 -18.836927 0.000000 0.000000 0.000000
-31.445881 73.719921 318.265519 -2.675890 1.191076 20.654052 -0.669422 -0.417983 -20.725521 -0.304348 -0.054105 -0.144040 -4.212905 1.323011 4.359450 0.000000 0.000000 0.000000 -88.327917 -23.750350 -47.197709 4.677120 13.296527 -9.606971 -13.171673 -15.931434 27.752693 -15.027215 19.582176 -59.805774 0.000000 0.000000 0.000000 0.000000 0.000000 0.000000 -2.553280 18.158594 6.156078 10.076947 7.288728 -1.135736 3.711910 25.459465 -1.736751 -1.628957 31.511488 -13.481317 0.000000 0.000000 0.000000 0.000000 0.000000 0.000000 1.035147 -1.169177 -20.698487 -8.696547 -1.724458 -1.198908 10.277834 -2.410647 -4.732943 0.000000 0.000000 0.000000 2.258949 0.358618 -20.828003 -7.597551 -8.543728 -0.805775 18.007033 12.773675 -2.807160 0.000000 0.000000 0.000000
-31.122862 74.407357 317.590594 -2.966574 1.777802 15.230431 -0.812300 -0.717842 -15.309940 -0.491341 -0.185579 -0.178660 -4.416234 1.481878 4.790445 0.000000 0.000000 0.000000 -93.014030 -31.354040 -63.778389 3.485136 13.305522 -2.200293 -10.709878 -18.063239 28.803293 -17.343771 23.833189 -60.208433 0.000000 0.000000 0.000000 0.000000 0.000000 0.000000 -4.785441 18.896530 6.954015 11.436225 6.835213 -1.675732 3.772285 24.542058 -2.613863 -3.081928 29.040971 -10.118842 0.000000 0.000000 0.000000 0.000000 0.000000 0.000000 0.404122 -4.001642 -15.418313 -9.074214 0.324114 -0.786463 13.668125 0.372262 -3.860146 0.000000 0.000000 0.000000 2.651658 0.255897 -15.379623 -8.115778 -9.440561 -0.956161 17.160936 13.283701 -3.482742 0.000000 0.000000 0.000000
-31.258797 75.264839 316.851609 -3.718500 2.280562 6.037029 -0.202000 -0.953403 -6.093179 -0.824658 -0.493578 -0.228091 -4.615735 1.723743 5.215764 0.000000 0.000000 0.000000 -93.408638 -36.751370 -72.528824 3.076418 13.117669 2.297737 -8.544655 -18.212532 28.443042 -25.205496 27.620848 -51.297625 0.000000 0.000000 0.000000 0.000000 0.000000 0.000000 -8.061591 19.408919 7.880774 13.926225 6.013999 -1.817479 3.010278 19.160882 -3.270736 -10.417949 36.491130 2.202744 0.000000 0.000000 0.000000 0.000000 0.000000 0.000000 3.119109 -6.750019 -6.033295 -11.933285 1.582815 -0.535701 14.001117 1.542002 -2.670809 0.000000 0.000000 0.000000 4.295764 0.951749 -6.109331 -9.394887 -10.640254 -1.213391 18.496462 24.184096 -17.867063 0.000000 0.000000 0.000000
-32.170351 76.020922 316.605267 -5.362998 2.218816 -5.538762 0.677317 -0.673148 5.506048 -0.524205 -0.656355 -0.252355 -4.232861 1.481849 5.437665 0.000000 0.000000 0.000000 -88.315117 -41.927920 -73.940030 3.758380 13.177081 4.786869 -8.898123 -19.439735 26.414659 -36.475033 27.771585 -46.448725 0.000000 0.000000 0.000000 0.000000 0.000000 0.000000 -11.891527 19.838695 8.914133 17.249421 4.847835 -1.558956 3.221981 17.188731 -2.386773 -16.258159 38.556048 10.563325 0.000000 0.000000 0.000000 0.000000 0.000000 0.000000 9.549262 -6.347636 6.100720 -17.075095 1.332941 -0.579548 11.872734 1.365406 -0.930642 0.000000 0.000000 0.000000 6.987275 3.950880 5.461101 -10.588646 -12.846406 -1.599052 17.346920 28.287526 -23.534927 0.000000 0.000000 0.000000
-33.750615 76.615689 316.782226 -7.493550 1.658960 -17.840245 1.353858 0.073356 17.792404 -0.001935 -0.667142 -0.272902 -3.384113 1.173838 5.624851 0.000000 0.000000 0.000000 -71.231439 -48.558163 -64.572110 3.425550 13.316304 7.094942 -12.960312 -21.939728 22.325933 -63.649355 26.642008 -22.850482 0.000000 0.000000 0.000000 0.000000 0.000000 0.000000 -15.319474 20.339276 10.016021 20.473329 3.680294 -1.260358 4.339277 16.589819 0.505136 -18.049269 42.749189 11.521502 0.000000 0.000000 0.000000 0.000000 0.000000 0.000000 17.885141 -0.676877 18.435158 -25.456376 -0.705727 -1.241408 6.245796 -1.284378 1.274383 0.000000 0.000000 0.000000 9.005651 9.267652 17.552260 -11.659277 -15.677390 -2.046157 16.857141 31.922664 -28.221037 0.000000 0.000000 0.000000
